<?xml version="1.0" encoding="utf-8"?>
<!-- Generator: Adobe Illustrator 22.1.0, SVG Export Plug-In . SVG Version: 6.00 Build 0)  -->
<svg version="1.1" id="Capa_1" xmlns="http://www.w3.org/2000/svg" xmlns:xlink="http://www.w3.org/1999/xlink" x="0px" y="0px"
	 viewBox="0 0 1165.4 139.5" style="enable-background:new 0 0 1165.4 139.5;" xml:space="preserve">
<style type="text/css">
	.st0{fill:#FFFFFF;}
	.st1{fill:#181B20;}
	.st2{fill:#36D8BD;}
</style>
<rect x="1310.2" y="-1865.9" class="st0" width="1167" height="506"/>
<rect x="1310.2" y="-1291.9" class="st0" width="1167" height="859.9"/>
<g>
	<path class="st1" d="M1737.9-1652.3H1722c-11.2,0-16.6,5.4-16.6,16.5v72.8c0,11.1,5.4,16.5,16.6,16.5h15.9
		c11.1,0,16.5-5.4,16.5-16.5v-13.6h-10.8l0,9.7c0,6-3.7,9.7-9.7,9.7h-7.4c-6,0-9.7-3.7-9.7-9.7v-64.9c0-6,3.7-9.7,9.7-9.7h7.4
		c5.9,0,9.7,3.8,9.7,9.7v9.7l10.8,0v-13.6C1754.4-1646.9,1749-1652.3,1737.9-1652.3z"/>
	<path class="st1" d="M1811.9-1546.5h11.1l-10-38.1l3.1-1.4c5.4-2.4,8-7.3,8-15.1v-34.7c0-11.1-5.4-16.5-16.5-16.5h-34v105.8h11.3
		v-38.1h16.9L1811.9-1546.5z M1784.9-1641.5h18.1c5.9,0,9.7,3.8,9.7,9.7v26.7c0,5.9-3.8,9.7-9.7,9.7h-18.1V-1641.5z"/>
	<polygon class="st1" points="1886.3,-1652.3 1866.8,-1602.2 1847.2,-1652.3 1835.7,-1652.3 1861.1,-1590.5 1861.1,-1546.5 
		1872.4,-1546.5 1872.4,-1590.5 1897.8,-1652.3 	"/>
	<path class="st1" d="M1962.6-1601.1v-34.7c0-11.1-5.4-16.5-16.5-16.5h-32.4v105.8h11.3v-38.1h21.1
		C1957.2-1584.6,1962.6-1590,1962.6-1601.1z M1925-1595.4v-46.1h16.5c6,0,9.7,3.7,9.7,9.7v26.7c0,5.9-3.8,9.7-9.7,9.7H1925z"/>
	<polygon class="st1" points="2026.5,-1652.3 1977.6,-1652.3 1977.6,-1641.5 1996.3,-1641.5 1996.3,-1546.5 2007.7,-1546.5 
		2007.7,-1641.5 2026.5,-1641.5 	"/>
	<path class="st1" d="M2040-1562.9c0,11.1,5.4,16.5,16.5,16.5h15.9c11.1,0,16.5-5.4,16.5-16.5v-72.8c0-11.1-5.4-16.5-16.5-16.5
		h-15.9c-11.1,0-16.5,5.4-16.5,16.5V-1562.9z M2050.9-1632.2c0-5.9,3.8-9.7,9.7-9.7h8.3c5.9,0,9.7,3.8,9.7,9.7v65.7
		c0,6-3.7,9.7-9.7,9.7h-8.3c-6,0-9.7-3.7-9.7-9.7V-1632.2z"/>
	<path class="st2" d="M2176.3-1549.2c0.8,1.9,0.1,3.2-2,3.2h-13.7c-1.5,0-2.5-0.5-3.1-1.9l-12.8-32.3l-12.8,32.3
		c-0.5,1.3-1.6,1.9-3.1,1.9h-13.7c-2.1,0-2.8-1.3-2-3.2l21.1-51.2l-20.3-49.1c-0.8-1.9-0.1-3.2,2-3.2h13.3c1.5,0,2.5,0.5,3.1,1.9
		l12.4,31.6l12.4-31.6c0.5-1.3,1.6-1.9,3.1-1.9h13.3c2.1,0,2.8,1.3,2,3.2l-20.4,49.1L2176.3-1549.2z"/>
	<path class="st2" d="M2240.7-1546c-1.2,0-1.9-0.7-2.1-1.9l-3.7-19.5h-23.7l-3.6,19.5c-0.3,1.2-0.9,1.9-2.1,1.9h-14.3
		c-1.5,0-2.1-0.8-1.7-2.3l22.1-102.5c0.3-1.3,1.1-1.9,2.3-1.9h18.5c1.2,0,2,0.5,2.3,1.9l22.1,102.5c0.3,1.5-0.3,2.3-1.9,2.3H2240.7z
		 M2222.9-1629.4l-8.5,46.5h17.1L2222.9-1629.4z"/>
	<path class="st2" d="M2272.7-1650.6c0-1.3,0.8-2.1,2.1-2.1h32c12.5,0,19.2,6.7,19.2,19.2v32.5c0,12.4-6.7,19.2-19.2,19.2h-16v33.6
		c0,1.3-0.7,2.1-2.1,2.1h-13.9c-1.3,0-2.1-0.8-2.1-2.1V-1650.6z M2302.5-1599.4c3.6,0,5.3-2,5.3-5.3v-25.1c0-3.5-1.7-5.3-5.3-5.3
		h-11.7v35.7H2302.5z"/>
</g>
<g>
	<g>
		<g>
			<path class="st1" d="M1615.9-686.5H1600c-11.2,0-16.6,5.4-16.6,16.5v72.8c0,11.1,5.4,16.5,16.6,16.5h15.9
				c11.1,0,16.5-5.4,16.5-16.5v-13.6h-10.8l0,9.7c0,6-3.7,9.7-9.7,9.7h-7.4c-6,0-9.7-3.7-9.7-9.7V-666c0-6,3.7-9.7,9.7-9.7h7.4
				c5.9,0,9.7,3.8,9.7,9.7v9.7l10.8,0V-670C1632.4-681.1,1627-686.5,1615.9-686.5z"/>
		</g>
		<g>
			<g>
				<path class="st1" d="M1689.9-580.7h11.1l-10-38.1l3.1-1.4c5.4-2.4,8-7.3,8-15.1V-670c0-11.1-5.4-16.5-16.5-16.5h-34v105.8h11.3
					v-38.1h16.9L1689.9-580.7z M1663-675.7h18.1c5.9,0,9.7,3.8,9.7,9.7v26.7c0,5.9-3.8,9.7-9.7,9.7H1663V-675.7z"/>
			</g>
		</g>
		<g>
			<polygon class="st1" points="1764.3,-686.5 1744.8,-636.4 1725.2,-686.5 1713.7,-686.5 1739.1,-624.7 1739.1,-580.7 
				1750.4,-580.7 1750.4,-624.7 1775.8,-686.5 			"/>
		</g>
		<g>
			<g>
				<path class="st1" d="M1840.6-635.3V-670c0-11.1-5.4-16.5-16.5-16.5h-32.4v105.8h11.3v-38.1h21.1
					C1835.2-618.8,1840.6-624.2,1840.6-635.3z M1803.1-629.6v-46.1h16.5c6,0,9.7,3.7,9.7,9.7v26.7c0,5.9-3.8,9.7-9.7,9.7H1803.1z"/>
			</g>
		</g>
		<g>
			<polygon class="st1" points="1904.5,-686.5 1855.6,-686.5 1855.6,-675.7 1874.4,-675.7 1874.4,-580.7 1885.7,-580.7 
				1885.7,-675.7 1904.5,-675.7 			"/>
		</g>
		<g>
			<g>
				<path class="st1" d="M1918-597.2c0,11.1,5.4,16.5,16.5,16.5h15.9c11.1,0,16.5-5.4,16.5-16.5V-670c0-11.1-5.4-16.5-16.5-16.5
					h-15.9c-11.1,0-16.5,5.4-16.5,16.5V-597.2z M1928.9-666.5c0-5.9,3.8-9.7,9.7-9.7h8.3c5.9,0,9.7,3.8,9.7,9.7v65.7
					c0,6-3.7,9.7-9.7,9.7h-8.3c-6,0-9.7-3.7-9.7-9.7V-666.5z"/>
			</g>
		</g>
		<g>
			<g>
				<path class="st2" d="M2054.3-583.5c0.8,1.9,0.1,3.2-2,3.2h-13.7c-1.5,0-2.5-0.5-3.1-1.9l-12.8-32.3l-12.8,32.3
					c-0.5,1.3-1.6,1.9-3.1,1.9h-13.7c-2.1,0-2.8-1.3-2-3.2l21.1-51.2l-20.3-49.1c-0.8-1.9-0.1-3.2,2-3.2h13.3c1.5,0,2.5,0.5,3.1,1.9
					l12.4,31.6l12.4-31.6c0.5-1.3,1.6-1.9,3.1-1.9h13.3c2.1,0,2.8,1.3,2,3.2l-20.4,49.1L2054.3-583.5z"/>
			</g>
		</g>
		<g>
			<g>
				<path class="st2" d="M2118.7-580.3c-1.2,0-1.9-0.7-2.1-1.9l-3.7-19.5h-23.7l-3.6,19.5c-0.3,1.2-0.9,1.9-2.1,1.9h-14.3
					c-1.5,0-2.1-0.8-1.7-2.3l22.1-102.5c0.3-1.3,1.1-1.9,2.3-1.9h18.5c1.2,0,2,0.5,2.3,1.9l22.1,102.5c0.3,1.5-0.3,2.3-1.9,2.3
					H2118.7z M2101-663.6l-8.5,46.5h17.1L2101-663.6z"/>
			</g>
		</g>
		<g>
			<g>
				<path class="st2" d="M2150.7-684.8c0-1.3,0.8-2.1,2.1-2.1h32c12.5,0,19.2,6.7,19.2,19.2v32.5c0,12.4-6.7,19.2-19.2,19.2h-16
					v33.6c0,1.3-0.7,2.1-2.1,2.1h-13.9c-1.3,0-2.1-0.8-2.1-2.1V-684.8z M2180.5-633.6c3.6,0,5.3-2,5.3-5.3V-664
					c0-3.5-1.7-5.3-5.3-5.3h-11.7v35.7H2180.5z"/>
			</g>
		</g>
	</g>
</g>
<path class="st2" d="M1670-1548.7l-34.8-20c-2.4-1.4-5.4-1.4-7.9,0l-13.1,7.5l-33.1-19.1v-38.2l33.1-19.1l12.9,7.5
	c2.4,1.4,5.5,1.4,7.9,0l34.6-20.1c2.4-1.4,3.9-4,3.9-6.8c0-2.8-1.5-5.4-3.9-6.8l-39.5-22.8v18.2l19.8,11.4l-18.9,11l-9-5.2v-57.4
	c2.4-2.2,3.9-5.3,3.9-8.7c0-6.5-5.3-11.8-11.8-11.8c-6.5,0-11.8,5.3-11.8,11.8c0,3.6,1.6,6.7,4.1,8.9v17.1l-25.2,14.6v-15.7
	c2.4-2.2,4-5.3,4-8.8c0-6.5-5.3-11.8-11.8-11.8c-6.5,0-11.8,5.3-11.8,11.8c0,3.5,1.5,6.7,4,8.8v24.8l-28.9,16.7h-19.8
	c-2.2-2.4-5.3-4-8.8-4c-6.5,0-11.8,5.3-11.8,11.8c0,6.5,5.3,11.8,11.8,11.8c3.5,0,6.7-1.5,8.8-4h14v71.6h-14c-2.2-2.4-5.3-4-8.8-4
	c-6.5,0-11.8,5.3-11.8,11.8c0,6.5,5.3,11.8,11.8,11.8c3.5,0,6.7-1.5,8.8-4h19.6l29,16.8v21.8c-2.4,2.2-4,5.3-4,8.8
	c0,6.5,5.3,11.8,11.8,11.8c6.5,0,11.8-5.3,11.8-11.8c0-3.5-1.5-6.7-4-8.8v-12.7l25.2,14.6v13.5c-2.5,2.2-4.1,5.4-4.1,8.9
	c0,6.5,5.3,11.8,11.8,11.8c6.5,0,11.8-5.3,11.8-11.8c0-3.5-1.5-6.6-3.9-8.7v-53.8l9.1-5.3l19,10.9l-20.1,11.6v18.2l39.8-23
	c2.4-1.4,3.9-4,3.9-6.8C1674-1544.7,1672.5-1547.3,1670-1548.7z M1606.5-1525.6l-59.9-34.6v-78.3l59.9-34.6v21.9l-37,21.4
	c-2.4,1.4-3.9,4-3.9,6.8v47.3c0,2.8,1.5,5.4,3.9,6.8l37,21.4V-1525.6z"/>
<rect x="89.1" y="-1865.9" class="st1" width="1167" height="506"/>
<g>
	<path class="st0" d="M516.8-1652.3h-15.9c-11.2,0-16.6,5.4-16.6,16.5v72.8c0,11.1,5.4,16.5,16.6,16.5h15.9
		c11.1,0,16.5-5.4,16.5-16.5v-13.6h-10.8l0,9.7c0,6-3.7,9.7-9.7,9.7h-7.4c-6,0-9.7-3.7-9.7-9.7v-64.9c0-6,3.7-9.7,9.7-9.7h7.4
		c5.9,0,9.7,3.8,9.7,9.7v9.7l10.8,0v-13.6C533.3-1646.9,527.9-1652.3,516.8-1652.3z"/>
	<path class="st0" d="M590.8-1546.5h11.1l-10-38.1l3.1-1.4c5.4-2.4,8-7.3,8-15.1v-34.7c0-11.1-5.4-16.5-16.5-16.5h-34v105.8h11.3
		v-38.1h16.9L590.8-1546.5z M563.8-1641.5h18.1c5.9,0,9.7,3.8,9.7,9.7v26.7c0,5.9-3.8,9.7-9.7,9.7h-18.1V-1641.5z"/>
	<polygon class="st0" points="665.2,-1652.3 645.6,-1602.2 626.1,-1652.3 614.5,-1652.3 640,-1590.5 640,-1546.5 651.3,-1546.5 
		651.3,-1590.5 676.7,-1652.3 	"/>
	<path class="st0" d="M741.5-1601.1v-34.7c0-11.1-5.4-16.5-16.5-16.5h-32.4v105.8h11.3v-38.1H725
		C736.1-1584.6,741.5-1590,741.5-1601.1z M703.9-1595.4v-46.1h16.5c6,0,9.7,3.7,9.7,9.7v26.7c0,5.9-3.8,9.7-9.7,9.7H703.9z"/>
	<polygon class="st0" points="805.3,-1652.3 756.4,-1652.3 756.4,-1641.5 775.2,-1641.5 775.2,-1546.5 786.6,-1546.5 786.6,-1641.5 
		805.3,-1641.5 	"/>
	<path class="st0" d="M818.9-1562.9c0,11.1,5.4,16.5,16.5,16.5h15.9c11.1,0,16.5-5.4,16.5-16.5v-72.8c0-11.1-5.4-16.5-16.5-16.5
		h-15.9c-11.1,0-16.5,5.4-16.5,16.5V-1562.9z M829.8-1632.2c0-5.9,3.8-9.7,9.7-9.7h8.3c5.9,0,9.7,3.8,9.7,9.7v65.7
		c0,6-3.7,9.7-9.7,9.7h-8.3c-6,0-9.7-3.7-9.7-9.7V-1632.2z"/>
	<path class="st2" d="M955.2-1549.2c0.8,1.9,0.1,3.2-2,3.2h-13.7c-1.5,0-2.5-0.5-3.1-1.9l-12.8-32.3l-12.8,32.3
		c-0.5,1.3-1.6,1.9-3.1,1.9H894c-2.1,0-2.8-1.3-2-3.2l21.1-51.2l-20.3-49.1c-0.8-1.9-0.1-3.2,2-3.2h13.3c1.5,0,2.5,0.5,3.1,1.9
		l12.4,31.6l12.4-31.6c0.5-1.3,1.6-1.9,3.1-1.9h13.3c2.1,0,2.8,1.3,2,3.2l-20.4,49.1L955.2-1549.2z"/>
	<path class="st2" d="M1019.5-1546c-1.2,0-1.9-0.7-2.1-1.9l-3.7-19.5H990l-3.6,19.5c-0.3,1.2-0.9,1.9-2.1,1.9H970
		c-1.5,0-2.1-0.8-1.7-2.3l22.1-102.5c0.3-1.3,1.1-1.9,2.3-1.9h18.5c1.2,0,2,0.5,2.3,1.9l22.1,102.5c0.3,1.5-0.3,2.3-1.9,2.3H1019.5z
		 M1001.8-1629.4l-8.5,46.5h17.1L1001.8-1629.4z"/>
	<path class="st2" d="M1051.5-1650.6c0-1.3,0.8-2.1,2.1-2.1h32c12.5,0,19.2,6.7,19.2,19.2v32.5c0,12.4-6.7,19.2-19.2,19.2h-16v33.6
		c0,1.3-0.7,2.1-2.1,2.1h-13.9c-1.3,0-2.1-0.8-2.1-2.1V-1650.6z M1081.4-1599.4c3.6,0,5.3-2,5.3-5.3v-25.1c0-3.5-1.7-5.3-5.3-5.3
		h-11.7v35.7H1081.4z"/>
</g>
<path class="st2" d="M448.9-1548.7l-34.8-20c-2.4-1.4-5.4-1.4-7.9,0l-13.1,7.5l-33.1-19.1v-38.2l33.1-19.1l12.9,7.5
	c2.4,1.4,5.5,1.4,7.9,0l34.6-20.1c2.4-1.4,3.9-4,3.9-6.8c0-2.8-1.5-5.4-3.9-6.8l-39.5-22.8v18.2l19.8,11.4l-18.9,11l-9-5.2v-57.4
	c2.4-2.2,3.9-5.3,3.9-8.7c0-6.5-5.3-11.8-11.8-11.8c-6.5,0-11.8,5.3-11.8,11.8c0,3.6,1.6,6.7,4.1,8.9v17.1l-25.2,14.6v-15.7
	c2.4-2.2,4-5.3,4-8.8c0-6.5-5.3-11.8-11.8-11.8s-11.8,5.3-11.8,11.8c0,3.5,1.5,6.7,4,8.8v24.8l-28.9,16.7h-19.8
	c-2.2-2.4-5.3-4-8.8-4c-6.5,0-11.8,5.3-11.8,11.8c0,6.5,5.3,11.8,11.8,11.8c3.5,0,6.7-1.5,8.8-4h14v71.6h-14c-2.2-2.4-5.3-4-8.8-4
	c-6.5,0-11.8,5.3-11.8,11.8c0,6.5,5.3,11.8,11.8,11.8c3.5,0,6.7-1.5,8.8-4h19.6l29,16.8v21.8c-2.4,2.2-4,5.3-4,8.8
	c0,6.5,5.3,11.8,11.8,11.8s11.8-5.3,11.8-11.8c0-3.5-1.5-6.7-4-8.8v-12.7l25.2,14.6v13.5c-2.5,2.2-4.1,5.4-4.1,8.9
	c0,6.5,5.3,11.8,11.8,11.8c6.5,0,11.8-5.3,11.8-11.8c0-3.5-1.5-6.6-3.9-8.7v-53.8l9.1-5.3l19,10.9l-20.1,11.6v18.2l39.8-23
	c2.4-1.4,3.9-4,3.9-6.8C452.9-1544.7,451.4-1547.3,448.9-1548.7z M385.3-1525.6l-59.9-34.6v-78.3l59.9-34.6v21.9l-37,21.4
	c-2.4,1.4-3.9,4-3.9,6.8v47.3c0,2.8,1.5,5.4,3.9,6.8l37,21.4V-1525.6z"/>
<path class="st2" d="M2026.6-868.2l-54.4-31.2c-3.8-2.2-8.5-2.2-12.3,0l-20.4,11.8l-51.8-29.9v-59.8l51.8-29.9l20.2,11.7
	c3.8,2.2,8.5,2.2,12.3,0l54-31.5c3.8-2.2,6.1-6.3,6.1-10.7c0-4.4-2.4-8.4-6.2-10.6l-61.7-35.6v28.4l31,17.9l-29.5,17.2l-14-8.1
	v-89.8c3.7-3.4,6-8.2,6-13.7c0-10.2-8.3-18.5-18.5-18.5c-10.2,0-18.5,8.3-18.5,18.5c0,5.6,2.5,10.6,6.4,13.9v26.8l-39.4,22.8v-24.6
	c3.8-3.4,6.2-8.3,6.2-13.8c0-10.2-8.3-18.5-18.5-18.5s-18.5,8.3-18.5,18.5c0,5.5,2.4,10.4,6.2,13.8v38.8l-45.2,26.1h-30.9
	c-3.4-3.8-8.3-6.2-13.8-6.2c-10.2,0-18.5,8.3-18.5,18.5c0,10.2,8.3,18.5,18.5,18.5c5.5,0,10.4-2.4,13.8-6.2h21.9v112h-21.9
	c-3.4-3.8-8.3-6.2-13.8-6.2c-10.2,0-18.5,8.3-18.5,18.5c0,10.2,8.3,18.5,18.5,18.5c5.5,0,10.4-2.4,13.8-6.2h30.7l45.4,26.2v34
	c-3.8,3.4-6.2,8.3-6.2,13.8c0,10.2,8.3,18.5,18.5,18.5s18.5-8.3,18.5-18.5c0-5.5-2.4-10.4-6.2-13.8v-19.8l39.4,22.8v21.2
	c-3.9,3.4-6.4,8.4-6.4,13.9c0,10.2,8.3,18.5,18.5,18.5c10.2,0,18.5-8.3,18.5-18.5c0-5.4-2.3-10.3-6-13.7v-84.1l14.3-8.3l29.7,17.1
	l-31.5,18.2v28.4l62.3-36c3.8-2.2,6.2-6.3,6.2-10.7C2032.7-861.9,2030.4-866,2026.6-868.2z M1927.1-832l-93.7-54.1v-122.4l93.7-54.1
	v34.2l-57.9,33.5c-3.8,2.2-6.2,6.3-6.2,10.7v74c0,4.4,2.3,8.5,6.2,10.7l57.9,33.5V-832z"/>
<rect x="89.1" y="-1291.9" class="st1" width="1167" height="859.9"/>
<g>
	<g>
		<path class="st0" d="M57.5,15.6H41.6C30.4,15.6,25,21,25,32.1v72.8c0,11.1,5.4,16.5,16.6,16.5h15.9c11.1,0,16.5-5.4,16.5-16.5
			V91.2H63.2l0,9.7c0,6-3.7,9.7-9.7,9.7h-7.4c-6,0-9.7-3.7-9.7-9.7V36c0-6,3.7-9.7,9.7-9.7h7.4c5.9,0,9.7,3.8,9.7,9.7v9.7l10.8,0
			V32.1C74,21,68.6,15.6,57.5,15.6z"/>
		<path class="st0" d="M131.5,121.4h11.1l-10-38.1l3.1-1.4c5.4-2.4,8-7.3,8-15.1V32.1c0-11.1-5.4-16.5-16.5-16.5h-34v105.8h11.3
			V83.2h16.9L131.5,121.4z M104.6,26.3h18.1c5.9,0,9.7,3.8,9.7,9.7v26.7c0,5.9-3.8,9.7-9.7,9.7h-18.1V26.3z"/>
		<polygon class="st0" points="205.9,15.6 186.4,65.7 166.8,15.6 155.3,15.6 180.7,77.4 180.7,121.4 192.1,121.4 192.1,77.4 
			217.5,15.6 		"/>
		<path class="st0" d="M282.2,66.8V32.1c0-11.1-5.4-16.5-16.5-16.5h-32.4v105.8h11.3V83.2h21.1C276.9,83.2,282.2,77.9,282.2,66.8z
			 M244.7,72.5V26.3h16.5c6,0,9.7,3.7,9.7,9.7v26.7c0,5.9-3.8,9.7-9.7,9.7H244.7z"/>
		<polygon class="st0" points="346.1,15.6 297.2,15.6 297.2,26.3 316,26.3 316,121.4 327.3,121.4 327.3,26.3 346.1,26.3 		"/>
		<path class="st0" d="M359.6,104.9c0,11.1,5.4,16.5,16.5,16.5h15.9c11.1,0,16.5-5.4,16.5-16.5V32.1c0-11.1-5.4-16.5-16.5-16.5
			h-15.9c-11.1,0-16.5,5.4-16.5,16.5V104.9z M370.6,35.6c0-5.9,3.8-9.7,9.7-9.7h8.3c5.9,0,9.7,3.8,9.7,9.7v65.7c0,6-3.7,9.7-9.7,9.7
			h-8.3c-6,0-9.7-3.7-9.7-9.7V35.6z"/>
		<g>
			<g>
				<path class="st2" d="M495.9,118.6c0.8,1.9,0.1,3.2-2,3.2h-13.7c-1.5,0-2.5-0.5-3.1-1.9l-12.8-32.3l-12.8,32.3
					c-0.5,1.3-1.6,1.9-3.1,1.9h-13.7c-2.1,0-2.8-1.3-2-3.2l21.1-51.2l-20.3-49.1c-0.8-1.9-0.1-3.2,2-3.2h13.3c1.5,0,2.5,0.5,3.1,1.9
					l12.4,31.6L476.7,17c0.5-1.3,1.6-1.9,3.1-1.9h13.3c2.1,0,2.8,1.3,2,3.2l-20.4,49.1L495.9,118.6z"/>
			</g>
		</g>
		<g>
			<g>
				<path class="st2" d="M560.3,121.8c-1.2,0-1.9-0.7-2.1-1.9l-3.7-19.5h-23.7l-3.6,19.5c-0.3,1.2-0.9,1.9-2.1,1.9h-14.3
					c-1.5,0-2.1-0.8-1.7-2.3L531.1,17c0.3-1.3,1.1-1.9,2.3-1.9h18.5c1.2,0,2,0.5,2.3,1.9l22.1,102.5c0.3,1.5-0.3,2.3-1.9,2.3H560.3z
					 M542.6,38.5L534,85h17.1L542.6,38.5z"/>
			</g>
		</g>
		<g>
			<g>
				<path class="st2" d="M592.3,17.3c0-1.3,0.8-2.1,2.1-2.1h32c12.5,0,19.2,6.7,19.2,19.2v32.5c0,12.4-6.7,19.2-19.2,19.2h-16v33.6
					c0,1.3-0.7,2.1-2.1,2.1h-13.9c-1.3,0-2.1-0.8-2.1-2.1V17.3z M622.2,68.5c3.6,0,5.3-2,5.3-5.3V38.1c0-3.5-1.7-5.3-5.3-5.3h-11.7
					v35.7H622.2z"/>
			</g>
		</g>
	</g>
</g>
<path class="st2" d="M805.4-868.2L751-899.4c-3.8-2.2-8.5-2.2-12.3,0l-20.4,11.8l-51.8-29.9v-59.8l51.8-29.9l20.2,11.7
	c3.8,2.2,8.5,2.2,12.3,0l54-31.5c3.8-2.2,6.1-6.3,6.1-10.7c0-4.4-2.4-8.4-6.2-10.6l-61.7-35.6v28.4l31,17.9l-29.5,17.2l-14-8.1
	v-89.8c3.7-3.4,6-8.2,6-13.7c0-10.2-8.3-18.5-18.5-18.5c-10.2,0-18.5,8.3-18.5,18.5c0,5.6,2.5,10.6,6.4,13.9v26.8l-39.4,22.8v-24.6
	c3.8-3.4,6.2-8.3,6.2-13.8c0-10.2-8.3-18.5-18.5-18.5c-10.2,0-18.5,8.3-18.5,18.5c0,5.5,2.4,10.4,6.2,13.8v38.8l-45.2,26.1h-30.9
	c-3.4-3.8-8.3-6.2-13.8-6.2c-10.2,0-18.5,8.3-18.5,18.5c0,10.2,8.3,18.5,18.5,18.5c5.5,0,10.4-2.4,13.8-6.2h21.9v112h-21.9
	c-3.4-3.8-8.3-6.2-13.8-6.2c-10.2,0-18.5,8.3-18.5,18.5c0,10.2,8.3,18.5,18.5,18.5c5.5,0,10.4-2.4,13.8-6.2h30.7l45.4,26.2v34
	c-3.8,3.4-6.2,8.3-6.2,13.8c0,10.2,8.3,18.5,18.5,18.5c10.2,0,18.5-8.3,18.5-18.5c0-5.5-2.4-10.4-6.2-13.8v-19.8l39.4,22.8v21.2
	c-3.9,3.4-6.4,8.4-6.4,13.9c0,10.2,8.3,18.5,18.5,18.5c10.2,0,18.5-8.3,18.5-18.5c0-5.4-2.3-10.3-6-13.7v-84.1l14.3-8.3l29.7,17.1
	l-31.5,18.2v28.4l62.3-36c3.8-2.2,6.2-6.3,6.2-10.7C811.6-861.9,809.3-866,805.4-868.2z M706-832l-93.7-54.1v-122.4l93.7-54.1v34.2
	L648.1-995c-3.8,2.2-6.2,6.3-6.2,10.7v74c0,4.4,2.3,8.5,6.2,10.7l57.9,33.5V-832z"/>
<g>
	<path class="st0" d="M682.2,92.3v29.5h-2.6V53h21.5c7.1,0,12.6,1.8,16.4,5.4c3.8,3.6,5.8,8.3,5.8,14.2c0,6-1.9,10.8-5.7,14.3
		s-9.3,5.3-16.5,5.3H682.2z M682.2,89.7h18.9c6.5,0,11.4-1.6,14.7-4.9c3.3-3.2,4.9-7.3,4.9-12.1c0-5-1.6-9.1-4.9-12.3
		c-3.3-3.2-8.2-4.8-14.7-4.8h-18.9V89.7z"/>
	<path class="st0" d="M767.5,101.2h-33.6l-7.7,20.6h-2.8L749.1,53h3.1l25.8,68.8h-2.8L767.5,101.2z M734.8,98.7h31.7l-14.4-38.5
		l-1.3-4h-0.3l-1.3,4L734.8,98.7z"/>
	<path class="st0" d="M802.7,91.2l1.2,2.4l1.3-2.4L828,53h3.1l-25.8,42.7v26.1h-2.6V95.7L776.8,53h3.1L802.7,91.2z"/>
	<path class="st0" d="M874.5,117.7h0.3L903.5,53h2.9v68.8h-2.6V59.3l-0.3,0l-27.9,62.6h-2l-28.5-63.9l-0.3,0v63.9h-2.6V53h3.5
		L874.5,117.7z"/>
	<path class="st0" d="M961,87.2h-33.1v32h37.9v2.6h-40.4V53h40.4v2.6h-37.9v29.1H961V87.2z"/>
	<path class="st0" d="M1028.2,121.8h-2.6l-44.1-64.1l-0.3,0.1v64h-2.6V53h2.6l44.1,63.9l0.3-0.1V53h2.6V121.8z"/>
	<path class="st0" d="M1091.5,55.5h-24.1v66.2h-2.6V55.5H1039V53h52.4V55.5z"/>
	<path class="st0" d="M1143.5,105.6c0-3.9-1.6-7.1-4.8-9.5c-3.2-2.4-8.7-4.9-16.5-7.4c-7.7-2.4-13.5-4.9-17.1-7.5
		c-3.7-2.6-5.5-6.6-5.5-11.8c0-5.2,2.2-9.3,6.5-12.5c4.3-3.2,9.8-4.8,16.4-4.8c6.9,0,12.4,1.8,16.6,5.3c4.2,3.5,6.2,8.5,6.1,14.8
		l-0.1,0.3h-2.2c0-5.1-1.9-9.4-5.7-12.8c-3.8-3.4-8.7-5.1-14.7-5.1c-6.2,0-11.1,1.5-14.8,4.4c-3.7,2.9-5.5,6.4-5.5,10.3
		c0,4,1.5,7.2,4.4,9.7s8.4,4.9,16.5,7.3c7.8,2.5,13.6,5,17.4,7.7c3.8,2.6,5.7,6.5,5.7,11.7c0,5.2-2.3,9.4-6.8,12.6
		c-4.5,3.2-10.1,4.7-16.7,4.7c-6.9,0-12.8-1.6-17.8-4.8c-5-3.2-7.4-8.3-7.2-15.2l0.1-0.3h2.1c0,6.2,2.3,10.8,6.9,13.6
		c4.6,2.8,9.9,4.2,15.9,4.2s11-1.4,14.9-4.2C1141.5,113.3,1143.5,109.8,1143.5,105.6z"/>
</g>
</svg>
